<?xml version="1.0" encoding="utf-8"?>
<!-- Generator: Adobe Illustrator 27.0.0, SVG Export Plug-In . SVG Version: 6.00 Build 0)  -->
<svg version="1.1" id="Layer_1" xmlns="http://www.w3.org/2000/svg" xmlns:xlink="http://www.w3.org/1999/xlink" x="0px" y="0px"
	 viewBox="0 0 1550 320" style="enable-background:new 0 0 1550 320;" xml:space="preserve">
<style type="text/css">
	.st0{display:none;fill:#204653;}
	.st1{fill:#0E1E24;}
	.st2{display:none;fill:#0E1E24;}
</style>
<path class="st0" d="M55,192l26.7,10.7C108.3,213,162,235,215,224c53.3-11,107-53,160-58.7c53.3-5.3,107,26.7,160,32
	c53.3,5.7,107-16.3,160-42.6c53.3-26.7,107-58.7,160-80c53.3-21.7,107-31.7,160-16c53.3,16.3,107,58.3,160,64
	c53.3,5.3,107-26.7,160-26.7c53.3,0,107,32,133,48l27,16v160h-26.7c-26.6,0-80.3,0-133.3,0c-53.3,0-107,0-160,0c-53.3,0-107,0-160,0
	c-53.3,0-107,0-160,0c-53.3,0-107,0-160,0c-53.3,0-107,0-160,0c-53.3,0-107,0-160,0c-53.3,0-107,0-160,0c-53.3,0-107,0-133,0H55V192
	z"/>
<path class="st0" d="M55,290.1l26.7-37.3C108.3,215.1,162,141.1,215,119.4c53.3-21.3,107,10.7,160,5.4c53.3-5.7,107-47.7,160-37.4
	c53.3,10.7,107,74.7,160,85.4c53.3,10.3,107-31.7,160-64c53.3-31.7,107-53.7,160-48c53.3,5.3,107,37.3,160,32
	c53.3-5.7,107-47.7,160-53.4c53.3-5.3,107,26.7,133,42.7l27,16v224h-26.7c-26.6,0-80.3,0-133.3,0c-53.3,0-107,0-160,0
	c-53.3,0-107,0-160,0c-53.3,0-107,0-160,0c-53.3,0-107,0-160,0c-53.3,0-107,0-160,0c-53.3,0-107,0-160,0c-53.3,0-107,0-160,0
	c-53.3,0-107,0-133,0H55V290.1z"/>
<path class="st0" d="M55,224v-80.4c90.6,32,94,56.8,152.2,62.1c55.9,4.1,98.7-24.9,160.3-19.8c64.6,4.9,83.2,58.9,187.6,2.4
	c115.9-62.2,166-70.2,220-50.5c52.2,23,46.5,62.1,112.4,58.3c56.3-4.2,71.5-8.5,127.6-25.5c54.3-16.1,107-42.7,160-42.7
	c53.3,0,111.3,59.5,160,32c93-42.7,101.6-20.1,160,6l0,0v154h-26.7c-26.6,0-80.3,0-133.3,0c-53.3,0-107,0-160,0c-53.3,0-107,0-160,0
	c-53.3,0-107,0-160,0c-53.3,0-107,0-160,0c-53.3,0-107,0-160,0c-53.3,0-107,0-160,0c-53.3,0-107,0-160,0c-53.3,0-107,0-133,0H55V224
	z"/>
<path class="st0" d="M1550,106.4v61.8c-81.6,13.8-102.9,11.8-167.3-11c-70.1-24.7-120.1-50.9-177.2-61.6
	c-57.4-10.3-67.1-2.4-157.8,37.8c-96.6,37.5-140.4,18.3-227.4-5.4c-87.9-26.3-109.5-40.3-166.5-29.6c-57.4,10.3-69,29.4-126,61.1
	c-57.4,32.3-145.6,33.1-191.9,15c-51.2-17.3-78.6-50.6-149.8-48.1c-63.8,6.7-129,33-156.9,38.7L0,170.4l0-160h28.7
	c28.6,0,86.4,0,143.5,0c57.4,0,115.2,0,172.2,0c57.4,0,115.2,0,172.2,0c57.4,0,115.2,0,172.2,0c57.4,0,115.2,0,172.2,0
	c57.4,0,115.2,0,172.2,0c57.4,0,115.2,0,172.2,0c57.4,0,115.2,0,172.2,0c57.4,0,115.2,0,143.2,0h29.1V106.4z"/>
<path class="st1" d="M1550,119.1l-32.3,3.6c-45.6,5.3-96.9-15.7-161.5-32C1291.7,75,1227.1,53,1162.5,53.3
	c-64.6-0.3-139.9,52.5-243,45.1C814.6,87.7,751.6,36.8,676.2,50.9C610.5,64,523,126.9,429.3,121C323,114.2,315.5,69.4,250.9,53.4
	s-92.6,30.2-153.4,55.9C51.5,128.8,33.6,128,0,128l0,0L0,0l32.3,0c32.3,0,96.9,0,161.5,0c64.6,0,129.2,0,193.7,0s129.2,0,193.8,0
	C645.8,0,710.4,0,775,0c64.6,0,129.2,0,193.7,0s129.2,0,193.8,0c64.6,0,129.2,0,193.8,0c64.6,0,129.2,0,161.5,0l32.3,0V119.1z"/>
<path class="st2" d="M1495,119.1l-30,3.6c-38.6,5.3-90-15.7-150-32C1255,75,1195,53,1135,53.3C1075,53,1015,75,955,74.7
	C895,75,743.9,25.9,682.3,43.9c-60.7,17.7-155.9,47-215.9,47S348.1,69.3,288.1,53.3s-85.5-9.6-142,16.1C103.3,89,86.2,88.1,55,88.1
	V128V0h30c30,0,90,0,150,0s120,0,180,0s120,0,180,0s120,0,180,0s120,0,180,0s120,0,180,0s120,0,180,0s120,0,150,0h30V119.1z"/>
</svg>
