<?xml version="1.0" encoding="UTF-8"?>
<svg id="Layer_1" data-name="Layer 1" xmlns="http://www.w3.org/2000/svg" viewBox="0 0 1440 128">
  <defs>
    <style>
      .cls-1 {
        fill: #0e1e24;
      }
    </style>
  </defs>
  <path class="cls-1" d="M1440,119.06l-30,3.64c-38.56,5.3-90-15.7-150-32-60-15.7-120-37.7-180-37.4-60-.3-120,21.7-180,21.4-60,.3-211.11-48.78-272.72-30.76-60.68,17.72-155.87,46.98-215.87,46.98s-118.26-21.61-178.26-37.61c-60-16-85.54-9.64-142.04,16.12C48.25,88.97,31.21,88.14,0,88.14v39.86S0,0,0,0H30c30,0,90,0,150,0s120,0,180,0,120,0,180,0,120,0,180,0c60,0,120,0,180,0h180c60,0,120,0,180,0,60,0,120,0,150,0h30V119.06Z"/>
</svg>