<?xml version="1.0" encoding="UTF-8"?>
<svg id="Layer_1" data-name="Layer 1" xmlns="http://www.w3.org/2000/svg" viewBox="0 0 1550 128">
  <defs>
    <style>
      .cls-1 {
        fill: #0e1e24;
      }
    </style>
  </defs>
  <path class="cls-1" d="M0,8.9l32.29-3.6C77.89,0,129.17,21,193.75,37.3c64.58,15.7,129.17,37.7,193.75,37.4,64.58,.3,139.94-52.52,242.96-45.09,104.93,10.7,167.89,61.63,243.35,47.49,65.69-13.1,153.17-76,246.92-70.1,106.24,6.8,113.77,51.6,178.36,67.6,64.58,16,92.57-30.2,153.39-55.9C1498.55-.8,1516.42,0,1550,0h0V128h-32.29c-32.29,0-96.87,0-161.46,0-64.58,0-129.17,0-193.75,0s-129.17,0-193.75,0c-64.58,0-129.17,0-193.75,0-64.58,0-129.17,0-193.75,0h-193.75c-64.58,0-129.17,0-193.75,0-64.58,0-129.17,0-161.46,0H0V8.9Z"/>
</svg>