<?xml version="1.0" encoding="UTF-8"?>
<svg id="Layer_1" data-name="Layer 1" xmlns="http://www.w3.org/2000/svg" viewBox="0 0 1440 128">
  <defs>
    <style>
      .cls-1 {
        fill: #0e1e24;
      }
    </style>
  </defs>
  <path class="cls-1" d="M0,8.94l30-3.64C68.56,0,120,21,180,37.3c60,15.7,120,37.7,180,37.4,60,.3,120-21.7,180-21.4,60-.3,211.11,48.78,272.72,30.76,60.68-17.72,155.87-46.98,215.87-46.98s118.26,21.61,178.26,37.61c60,16,85.54,9.64,142.04-16.12,42.85-19.54,59.89-18.7,91.1-18.7V0s0,128,0,128h-30c-30,0-90,0-150,0s-120,0-180,0-120,0-180,0-120,0-180,0c-60,0-120,0-180,0h-180c-60,0-120,0-180,0-60,0-120,0-150,0H0V8.94Z"/>
</svg>