<?xml version="1.0" encoding="UTF-8"?>
<svg id="Layer_1" data-name="Layer 1" xmlns="http://www.w3.org/2000/svg" viewBox="0 0 1550 128">
  <defs>
    <style>
      .cls-1 {
        fill: #0e1e24;
      }
    </style>
  </defs>
  <path class="cls-1" d="M1550,119.1l-32.29,3.6c-45.6,5.3-96.87-15.7-161.46-32-64.58-15.7-129.17-37.7-193.75-37.4-64.58-.3-129.17,21.7-193.75,21.4-64.58,.3-227.98-45.5-292.56-23.8-64.58,21.3-153.17,76-246.92,70.1-106.24-6.8-113.77-51.6-178.36-67.6-64.58-16-92.57,30.2-153.39,55.9-46.07,19.5-63.94,18.7-97.52,18.7H0V0H32.29c32.29,0,96.87,0,161.46,0,64.58,0,129.17,0,193.75,0s129.17,0,193.75,0c64.58,0,129.17,0,193.75,0,64.58,0,129.17,0,193.75,0h193.75c64.58,0,129.17,0,193.75,0,64.58,0,129.17,0,161.46,0h32.29V119.1Z"/>
</svg>