<?xml version="1.0" encoding="UTF-8"?>
<svg id="Layer_1" data-name="Layer 1" xmlns="http://www.w3.org/2000/svg" viewBox="0 0 1550 186.37">
  <defs>
    <style>
      .cls-1 {
        fill: #204653;
      }

      .cls-2 {
        fill: #0e1e24;
      }
    </style>
  </defs>
  <path class="cls-1" d="M0,79.97V18.17C81.55,4.36,102.9,6.33,167.27,29.17c70.05,24.69,120.12,50.9,177.17,61.6,57.37,10.3,67.06,2.4,157.8-37.8,96.55-37.5,140.36-18.3,227.44,5.4,87.94,26.3,109.47,40.3,166.52,29.6,57.37-10.3,69-29.4,126.05-61.1,57.37-32.3,145.64-33.1,191.92-15,51.24,17.3,78.58,50.6,149.83,48.1,63.83-6.7,128.95-33,156.94-38.7l29.06-5.3V175.97h-28.74c-28.63,0-86.43,0-143.48,0-57.37,0-115.17,0-172.22,0-57.37,0-115.17,0-172.22,0-57.37,0-115.17,0-172.22,0-57.37,0-115.17,0-172.22,0-57.37,0-115.17,0-172.22,0-57.37,0-115.17,0-172.22,0-57.37,0-115.17,0-172.22,0-57.37,0-115.17,0-143.16,0H0V79.97Z"/>
  <path class="cls-2" d="M0,67.27l32.29-3.6c45.6-5.3,96.87,15.7,161.46,32,64.58,15.7,129.17,37.7,193.75,37.4,64.58,.3,139.94-52.52,242.96-45.09,104.93,10.7,167.89,61.63,243.35,47.49,65.69-13.1,153.17-76,246.92-70.1,106.24,6.8,113.77,51.6,178.36,67.6,64.58,16,92.57-30.2,153.39-55.9,46.07-19.5,63.94-18.7,97.52-18.7h0V186.37h-32.29c-32.29,0-96.87,0-161.46,0-64.58,0-129.17,0-193.75,0s-129.17,0-193.75,0c-64.58,0-129.17,0-193.75,0-64.58,0-129.17,0-193.75,0h-193.75c-64.58,0-129.17,0-193.75,0-64.58,0-129.17,0-161.46,0H0V67.27Z"/>
</svg>