<?xml version="1.0" encoding="UTF-8"?>
<svg id="Layer_1" data-name="Layer 1" xmlns="http://www.w3.org/2000/svg" viewBox="0 0 1440 186.37">
  <defs>
    <style>
      .cls-1 {
        fill: #204653;
      }

      .cls-2 {
        fill: #0e1e24;
      }
    </style>
  </defs>
  <path class="cls-1" d="M1440,106.4v61.8c-75.77,13.81-95.6,11.84-155.4-11-65.08-24.69-111.6-50.9-164.6-61.6-53.3-10.3-62.3-2.4-146.6,37.8-89.7,37.5-130.4,18.3-211.3-5.4-81.7-26.3-101.7-40.3-154.7-29.6-53.3,10.3-64.1,29.4-117.1,61.1-53.3,32.3-135.3,33.1-178.3,15-47.6-17.3-73-50.6-139.2-48.1-59.3,6.7-119.8,33-145.8,38.7L0,170.4V10.4H26.7c26.6,0,80.3,0,133.3,0,53.3,0,107,0,160,0,53.3,0,107,0,160,0,53.3,0,107,0,160,0,53.3,0,107,0,160,0,53.3,0,107,0,160,0,53.3,0,107,0,160,0,53.3,0,107,0,160,0,53.3,0,107,0,133,0h27V106.4Z"/>
  <path class="cls-2" d="M1440,119.1l-30,3.6c-42.36,5.3-90-15.7-150-32-60-15.7-120-37.7-180-37.4-60-.3-120,21.7-180,21.4-60,.3-211.8-45.5-271.8-23.8-60,21.3-142.3,76-229.4,70.1-98.7-6.8-105.7-51.6-165.7-67.6-60-16-86,30.2-142.5,55.9C47.8,128.8,31.2,128,0,128H0V0H30c30,0,90,0,150,0s120,0,180,0,120,0,180,0,120,0,180,0h180c60,0,120,0,180,0,60,0,120,0,180,0,60,0,120,0,150,0h30V119.1Z"/>
</svg>