<?xml version="1.0" encoding="UTF-8"?>
<svg id="Layer_1" data-name="Layer 1" xmlns="http://www.w3.org/2000/svg" viewBox="0 0 1550 186.37">
  <defs>
    <style>
      .cls-1 {
        fill: #204653;
      }

      .cls-2 {
        fill: #0e1e24;
      }
    </style>
  </defs>
  <path class="cls-1" d="M1550,106.4v61.8c-81.55,13.81-102.9,11.84-167.27-11-70.05-24.69-120.12-50.9-177.17-61.6-57.37-10.3-67.06-2.4-157.8,37.8-96.55,37.5-140.36,18.3-227.44-5.4-87.94-26.3-109.47-40.3-166.52-29.6-57.37,10.3-69,29.4-126.05,61.1-57.37,32.3-145.64,33.1-191.92,15-51.24-17.3-78.58-50.6-149.83-48.1-63.83,6.7-128.95,33-156.94,38.7L0,170.4V10.4H28.74c28.63,0,86.43,0,143.48,0,57.37,0,115.17,0,172.22,0,57.37,0,115.17,0,172.22,0,57.37,0,115.17,0,172.22,0,57.37,0,115.17,0,172.22,0,57.37,0,115.17,0,172.22,0,57.37,0,115.17,0,172.22,0,57.37,0,115.17,0,172.22,0,57.37,0,115.17,0,143.16,0h29.06V106.4Z"/>
  <path class="cls-2" d="M1550,119.1l-32.29,3.6c-45.6,5.3-96.87-15.7-161.46-32-64.58-15.7-129.17-37.7-193.75-37.4-64.58-.3-139.94,52.52-242.96,45.09-104.93-10.7-167.89-61.63-243.35-47.49-65.69,13.1-153.17,76-246.92,70.1-106.24-6.8-113.77-51.6-178.36-67.6-64.58-16-92.57,30.2-153.39,55.9C51.45,128.8,33.58,128,0,128H0V0H32.29c32.29,0,96.87,0,161.46,0,64.58,0,129.17,0,193.75,0s129.17,0,193.75,0c64.58,0,129.17,0,193.75,0,64.58,0,129.17,0,193.75,0h193.75c64.58,0,129.17,0,193.75,0,64.58,0,129.17,0,161.46,0h32.29V119.1Z"/>
</svg>