<?xml version="1.0" encoding="UTF-8"?>
<svg id="Layer_1" data-name="Layer 1" xmlns="http://www.w3.org/2000/svg" viewBox="0 0 1440 186.37">
  <defs>
    <style>
      .cls-1 {
        fill: #204653;
      }

      .cls-2 {
        fill: #0e1e24;
      }
    </style>
  </defs>
  <path class="cls-1" d="M0,79.97V18.17C75.77,4.36,95.6,6.33,155.4,29.17c65.08,24.69,111.6,50.9,164.6,61.6,53.3,10.3,62.3,2.4,146.6-37.8,89.7-37.5,130.4-18.3,211.3,5.4,81.7,26.3,101.7,40.3,154.7,29.6,53.3-10.3,64.1-29.4,117.1-61.1,53.3-32.3,135.3-33.1,178.3-15,47.6,17.3,73,50.6,139.2,48.1,59.3-6.7,119.8-33,145.8-38.7l27-5.3V175.97h-26.7c-26.6,0-80.3,0-133.3,0-53.3,0-107,0-160,0-53.3,0-107,0-160,0-53.3,0-107,0-160,0-53.3,0-107,0-160,0-53.3,0-107,0-160,0-53.3,0-107,0-160,0-53.3,0-107,0-160,0-53.3,0-107,0-133,0H0V79.97Z"/>
  <path class="cls-2" d="M0,67.27l30-3.6c42.36-5.3,90,15.7,150,32,60,15.7,120,37.7,180,37.4,60,.3,120-21.7,180-21.4,60-.3,211.8,45.5,271.8,23.8,60-21.3,142.3-76,229.4-70.1,98.7,6.8,105.7,51.6,165.7,67.6s86-30.2,142.5-55.9c42.8-19.5,59.4-18.7,90.6-18.7h0V186.37h-30c-30,0-90,0-150,0h-180c-60,0-120,0-180,0h-180c-60,0-120,0-180,0h-180c-60,0-120,0-180,0-60,0-120,0-150,0H0V67.27Z"/>
</svg>